<svg width="46" height="46" viewBox="0 0 46 46" fill="none" xmlns="http://www.w3.org/2000/svg">
<circle cx="23" cy="23" r="22.5" stroke="#DDDDDD"/>
<path d="M28.4688 21.1037V20.5456C28.4688 17.4827 26.0748 15 23.125 15C20.1753 15 17.7813 17.4827 17.7813 20.5456V21.1037C17.7823 21.77 17.5921 22.4225 17.2335 22.984L16.3563 24.3496C15.5559 25.5965 16.1671 27.2914 17.5596 27.6857C21.1982 28.7172 25.0519 28.7172 28.6905 27.6857C30.083 27.2914 30.6942 25.5965 29.8938 24.3504L29.0166 22.9847C28.6577 22.4234 28.4673 21.7709 28.468 21.1045L28.4688 21.1037Z" stroke="black" stroke-width="1.1875"/>
<path d="M19.5625 28.4583C20.081 29.8421 21.4799 30.8333 23.125 30.8333C24.7701 30.8333 26.169 29.8421 26.6875 28.4583" stroke="black" stroke-width="1.1875" stroke-linecap="round"/>
<circle opacity="0.3" cx="27" cy="17" r="6" fill="#FF5959"/>
<circle cx="27" cy="17" r="3" fill="#FF5959"/>
</svg>
