<svg width="30" height="30" viewBox="0 0 30 30" fill="none" xmlns="http://www.w3.org/2000/svg">
<rect width="30" height="30" rx="15" fill="#C32A2A"/>
<path d="M21.705 20.2903C21.8928 20.4781 21.9983 20.7328 21.9983 20.9984C21.9983 21.2639 21.8928 21.5186 21.705 21.7064C21.5172 21.8942 21.2625 21.9997 20.997 21.9997C20.7314 21.9997 20.4767 21.8942 20.2889 21.7064L15 16.4159L9.70944 21.7048C9.52165 21.8926 9.26695 21.9981 9.00137 21.9981C8.73579 21.9981 8.48109 21.8926 8.29329 21.7048C8.1055 21.517 8 21.2623 8 20.9967C8 20.7311 8.1055 20.4764 8.29329 20.2886L13.5839 14.9997L8.29496 9.70918C8.10717 9.52138 8.00167 9.26668 8.00167 9.0011C8.00167 8.73552 8.10717 8.48082 8.29496 8.29303C8.48275 8.10524 8.73745 7.99973 9.00303 7.99973C9.26861 7.99973 9.52331 8.10524 9.71111 8.29303L15 13.5836L20.2906 8.29219C20.4784 8.1044 20.7331 7.9989 20.9986 7.9989C21.2642 7.9989 21.5189 8.1044 21.7067 8.29219C21.8945 8.47999 22 8.73469 22 9.00027C22 9.26585 21.8945 9.52055 21.7067 9.70834L16.4161 14.9997L21.705 20.2903Z" fill="white"/>
</svg>
