<svg width="63" height="63" viewBox="0 0 63 63" fill="none" xmlns="http://www.w3.org/2000/svg">
<rect width="63" height="63" rx="8" fill="#FF5959"/>
<path d="M19.6865 46.957H43.2766C44.7855 46.957 45.9632 45.7426 45.9632 44.2705V21.3428C45.9632 19.834 44.7487 18.6563 43.2766 18.6563H19.6865C18.1777 18.6563 17 19.8708 17 21.3428V44.2337C17 45.7426 18.2145 46.957 19.6865 46.957Z" fill="#FF8F8F"/>
<path d="M46 21.2324V26.7895H17V21.2324C17 19.7971 18.0305 18.6562 19.3185 18.6562H43.6815C44.9695 18.6194 46 19.7971 46 21.2324Z" fill="white"/>
<path d="M23.7345 24.0294C24.4662 24.0294 25.0594 23.4363 25.0594 22.7046C25.0594 21.9728 24.4662 21.3797 23.7345 21.3797C23.0028 21.3797 22.4097 21.9728 22.4097 22.7046C22.4097 23.4363 23.0028 24.0294 23.7345 24.0294Z" fill="#FF8F8F"/>
<path d="M31.5 24.0294C32.2318 24.0294 32.8249 23.4362 32.8249 22.7045C32.8249 21.9728 32.2318 21.3796 31.5 21.3796C30.7683 21.3796 30.1752 21.9728 30.1752 22.7045C30.1752 23.4362 30.7683 24.0294 31.5 24.0294Z" fill="#FF8F8F"/>
<path d="M39.2651 24.0294C39.9968 24.0294 40.5899 23.4362 40.5899 22.7045C40.5899 21.9728 39.9968 21.3796 39.2651 21.3796C38.5334 21.3796 37.9402 21.9728 37.9402 22.7045C37.9402 23.4362 38.5334 24.0294 39.2651 24.0294Z" fill="#FF8F8F"/>
<path d="M24.1028 17.0002H23.3667C23.1459 17.0002 22.9619 17.1842 22.9619 17.405V22.5205C22.9619 22.7413 23.1459 22.9253 23.3667 22.9253H24.1028C24.3236 22.9253 24.5076 22.7413 24.5076 22.5205V17.4418C24.5444 17.1842 24.3236 17.0002 24.1028 17.0002Z" fill="#FF8F8F"/>
<path d="M31.8683 17.0003H31.1322C30.9114 17.0003 30.7274 17.1843 30.7274 17.4051V22.5206C30.7274 22.7414 30.9114 22.9254 31.1322 22.9254H31.8683C32.0891 22.9254 32.2731 22.7414 32.2731 22.5206V17.4419C32.2731 17.1843 32.0891 17.0003 31.8683 17.0003Z" fill="#FF8F8F"/>
<path d="M39.6333 17.0003H38.8973C38.6764 17.0003 38.4924 17.1843 38.4924 17.4051V22.5206C38.4924 22.7414 38.6764 22.9254 38.8973 22.9254H39.6333C39.8541 22.9254 40.0381 22.7414 40.0381 22.5206V17.4419C40.0381 17.1843 39.8541 17.0003 39.6333 17.0003Z" fill="#FF8F8F"/>
</svg>
