<svg width="47" height="47" viewBox="0 0 47 47" fill="none" xmlns="http://www.w3.org/2000/svg">
<rect x="0.25" y="0.25" width="46.5" height="46.5" rx="7.75" stroke="#DDDDDD" stroke-width="0.5"/>
<path d="M29.7875 18.4129C31.2196 18.0949 33.085 16.6734 33.3689 15.9734C33.5354 15.5636 32.7051 14.9233 32.4832 14.665C31.9752 14.0759 32.1801 13.7857 32.3764 13.0835C32.6005 12.2852 32.0691 11.4037 31.3157 11.058C30.5623 10.7122 29.6616 10.8211 28.9039 11.1583C28.1462 11.4955 27.4995 12.0376 26.8656 12.5712C26.4024 12.2788 25.6639 10.9875 24.4687 11.8263C23.6427 12.4047 23.568 13.664 23.6747 14.6693C23.9245 16.9893 24.4965 18.1931 25.5743 18.5175C26.936 18.9273 28.4429 18.7117 29.7875 18.4129Z" fill="#FF8F8F"/>
<path d="M32.1143 11.7389C31.9328 14.8657 28.8829 16.9403 27.4358 17.8538L28.3749 18.6605C28.3749 18.6605 28.9704 18.6734 29.7857 18.413C31.1837 17.969 33.2262 16.714 33.3671 15.9734C33.5741 14.8956 32.4686 15.1304 32.2188 14.2787C32.0886 13.8284 32.8527 12.9768 32.1143 11.7389ZM26.868 12.5734C26.868 12.5734 26.3238 12.0163 25.9204 11.7624C25.7198 12.1401 25.5768 12.5499 25.5063 12.9725C25.3804 13.7153 25.5063 14.7696 25.803 15.5551C25.85 15.6767 26.025 15.6575 26.0442 15.5295C26.3003 13.8412 26.868 12.5734 26.868 12.5734Z" fill="#FF5959"/>
<path d="M23.0646 18.1376C23.0646 18.1376 16.4076 18.8569 13.4046 24.6366C10.4016 30.4164 12.9543 33.921 15.6563 35.1974C18.3584 36.4737 25.167 36.924 29.5957 35.8739C34.0245 34.8238 35.1322 32.6468 34.9252 30.5445C34.6242 27.4753 31.7727 25.5886 31.7727 25.5886C31.7727 25.5886 31.8859 21.798 28.9447 19.3371C26.3344 17.1515 23.0646 18.1376 23.0646 18.1376Z" fill="#FF8F8F"/>
<path d="M25.7966 27.8638C24.3687 26.0624 22.6826 25.8212 22.1426 25.1745C21.8481 24.8224 21.6752 24.4659 21.7414 24.0241C21.8118 23.5546 22.3561 23.2302 22.7787 23.1512C23.2717 23.0573 24.4477 23.1064 25.4359 24.0476C25.6707 24.2696 25.5853 24.6153 25.5789 24.9248C25.5618 25.5886 26.5116 26.2332 27.28 25.6782C28.0505 25.1212 27.4593 23.8811 26.962 23.2792C26.5863 22.8246 25.2246 21.8236 23.5321 21.6657C23.0561 21.6209 21.1416 21.337 20.036 23.4393C19.718 24.0433 19.6006 25.5032 21.2654 26.7369C21.6133 26.9951 23.419 27.9129 23.9205 28.5084C24.7892 29.5393 24.1937 30.4464 23.515 30.5659C21.6645 30.8903 20.6166 29.8893 20.4223 29.3408C20.2836 28.9502 20.4287 28.5276 20.2495 28.1605C20.0659 27.7827 19.6903 27.6333 19.2933 27.7592C17.9913 28.1733 18.4054 29.5969 18.9817 30.3802C19.5985 31.219 20.3562 31.7248 21.2078 32.0023C24.3858 33.0374 25.914 31.4025 26.1808 30.2052C26.3771 29.328 26.3558 28.5681 25.7966 27.8638Z" fill="#E65151"/>
<path d="M25.0279 20.4491C22.3237 26.2246 21.8584 33.5176 21.8584 33.5176" stroke="#E65151" stroke-miterlimit="10"/>
<path d="M27.2715 16.8144C29.0728 17.4013 29.472 19.0298 29.3418 19.4737C29.186 19.9945 27.1904 17.9669 24.2236 18.0886C23.1863 18.1312 23.4873 17.4952 23.9675 17.1281C24.6014 16.6436 25.6664 16.2936 27.2715 16.8144Z" fill="#FF5959"/>
<path d="M27.2715 16.8144C29.0728 17.4013 29.472 19.0298 29.3418 19.4737C29.186 19.9945 27.1904 17.9669 24.2236 18.0886C23.1863 18.1312 23.4873 17.4952 23.9675 17.1281C24.6014 16.6436 25.6664 16.2936 27.2715 16.8144Z" fill="#E65151"/>
<path d="M30.4344 22.5557C30.6607 22.3999 31.4205 22.6688 31.6339 24.1565C31.7385 24.8843 31.7705 25.5886 31.7705 25.5886C31.7705 25.5886 30.8741 24.7839 30.5774 24.2183C30.2039 23.5033 30.0588 22.8118 30.4344 22.5557Z" fill="#FF5959"/>
</svg>
