<svg width="30" height="30" viewBox="0 0 30 30" fill="none" xmlns="http://www.w3.org/2000/svg">
<rect width="30" height="30" rx="15" fill="#5458F7"/>
<path d="M14.2855 21.8571C14.2855 22.4893 14.7962 23 15.4284 23C16.0605 23 16.5712 22.4893 16.5712 21.8571V12.7143C16.5712 12.0821 16.0605 11.5714 15.4284 11.5714C14.7962 11.5714 14.2855 12.0821 14.2855 12.7143L14.2855 21.8571ZM15.4284 7C15.0495 7 14.6861 7.15051 14.4182 7.41842C14.1503 7.68633 13.9998 8.04969 13.9998 8.42857C13.9998 8.80745 14.1503 9.17081 14.4182 9.43872C14.6861 9.70663 15.0495 9.85714 15.4284 9.85714C15.8072 9.85714 16.1706 9.70663 16.4385 9.43872C16.7064 9.17081 16.8569 8.80745 16.8569 8.42857C16.8569 8.04969 16.7064 7.68633 16.4385 7.41842C16.1706 7.15051 15.8072 7 15.4284 7Z" fill="#F5F5F5"/>
</svg>
