<svg width="31" height="30" viewBox="0 0 31 30" fill="none" xmlns="http://www.w3.org/2000/svg">
<rect x="0.5" width="30" height="30" rx="15" fill="#00CC99"/>
<path d="M23.2875 10.6319L13.324 20.5954C13.2372 20.6825 13.1341 20.7515 13.0206 20.7987C12.9071 20.8458 12.7853 20.8701 12.6624 20.8701C12.5394 20.8701 12.4177 20.8458 12.3042 20.7987C12.1906 20.7515 12.0875 20.6825 12.0008 20.5954L7.64173 16.2364C7.55485 16.1495 7.48592 16.0463 7.4389 15.9328C7.39188 15.8193 7.36768 15.6976 7.36768 15.5747C7.36768 15.4518 7.39188 15.3302 7.4389 15.2166C7.48592 15.1031 7.55485 15 7.64173 14.9131C7.72862 14.8262 7.83177 14.7573 7.9453 14.7103C8.05882 14.6632 8.18049 14.639 8.30337 14.639C8.42625 14.639 8.54792 14.6632 8.66145 14.7103C8.77497 14.7573 8.87812 14.8262 8.96501 14.9131L12.6632 18.6112L21.9658 9.31019C22.1412 9.13471 22.3792 9.03613 22.6274 9.03613C22.8756 9.03613 23.1136 9.13471 23.289 9.31019C23.4645 9.48567 23.5631 9.72367 23.5631 9.97183C23.5631 10.22 23.4645 10.458 23.289 10.6335L23.2875 10.6319Z" fill="white"/>
</svg>
