<svg width="30" height="30" viewBox="0 0 30 30" fill="none" xmlns="http://www.w3.org/2000/svg">
<rect width="30" height="30" rx="15" fill="#EEBA00"/>
<path d="M16.5714 8.14286C16.5714 7.51071 16.0607 7 15.4286 7C14.7964 7 14.2857 7.51071 14.2857 8.14286V17.2857C14.2857 17.9179 14.7964 18.4286 15.4286 18.4286C16.0607 18.4286 16.5714 17.9179 16.5714 17.2857V8.14286ZM15.4286 23C15.8075 23 16.1708 22.8495 16.4387 22.5816C16.7066 22.3137 16.8571 21.9503 16.8571 21.5714C16.8571 21.1925 16.7066 20.8292 16.4387 20.5613C16.1708 20.2934 15.8075 20.1429 15.4286 20.1429C15.0497 20.1429 14.6863 20.2934 14.4184 20.5613C14.1505 20.8292 14 21.1925 14 21.5714C14 21.9503 14.1505 22.3137 14.4184 22.5816C14.6863 22.8495 15.0497 23 15.4286 23Z" fill="#F5F5F5"/>
</svg>
